# Rhino

mtllib BOX.mtl
usemtl diffuse_255_0_0_255
v -1.0466705134604126E-05 1.3286769444675883E-06 120
v -1.0466704225109424E-05 120 120.00000762939453
v 119.99999237060547 1.3286773992149392E-06 120.00000762939453
v 119.99999237060547 120 120.00000762939453
v 119.99999237060547 1.3286773992149392E-06 120.00000762939453
v 119.99999237060547 120 120.00000762939453
v 120.00000762939453 3.0435796816163929E-06 3.4581958630042209E-07
v 120.00000762939453 120 -1.753974856910645E-06
v 120.00000762939453 3.0435796816163929E-06 3.4581958630042209E-07
v 120.00000762939453 120 -1.753974856910645E-06
v -2.4010592824197374E-05 3.0435794542427175E-06 -1.3690797686649603E-06
v -2.4010591005207971E-05 120 3.4582302532726317E-07
v -2.4010592824197374E-05 3.0435794542427175E-06 -1.3690797686649603E-06
v -2.4010591005207971E-05 120 3.4582302532726317E-07
v -1.0466705134604126E-05 1.3286769444675883E-06 120
v -1.0466704225109424E-05 120 120.00000762939453
v -1.0466705134604126E-05 1.3286769444675883E-06 120
v 119.99999237060547 1.3286773992149392E-06 120.00000762939453
v 120.00000762939453 3.0435796816163929E-06 3.4581958630042209E-07
v -2.4010592824197374E-05 3.0435794542427175E-06 -1.3690797686649603E-06
v -1.0466704225109424E-05 120 120.00000762939453
v 119.99999237060547 120 120.00000762939453
v 120.00000762939453 120 -1.753974856910645E-06
v -2.4010591005207971E-05 120 3.4582302532726317E-07
vt 0 0
vt 0 0.66666620969772339
vt 0.25 0
vt 0.25 0.66666620969772339
vt 0.25 0
vt 0.25 0.66666620969772339
vt 0.5 0
vt 0.5 0.66666620969772339
vt 0.5 0
vt 0.5 0.66666620969772339
vt 0.75 0
vt 0.75 0.66666620969772339
vt 0.75 0
vt 0.75 0.66666620969772339
vt 1 0
vt 1 0.66666620969772339
vt 0 1
vt 0.25 1
vt 0.25 0.66666686534881592
vt 0 0.66666686534881592
vt 0.75 0.66666686534881592
vt 1 0.66666686534881592
vt 1 1
vt 0.75 1
vn 0 0 1
vn 0 0 1
vn 0 0 1
vn 0 0 1
vn 1 0 0
vn 1 0 0
vn 1 0 0
vn 1 0 0
vn 0 0 -1
vn 0 0 -1
vn 0 0 -1
vn 0 0 -1
vn -1 0 0
vn -1 0 0
vn -1 0 0
vn -1 0 0
vn 0 -1 0
vn 0 -1 0
vn 0 -1 0
vn 0 -1 0
vn 0 1 0
vn 0 1 0
vn 0 1 0
vn 0 1 0
f 1/1/1 3/3/3 4/4/4 2/2/2
f 5/5/5 7/7/7 8/8/8 6/6/6
f 9/9/9 11/11/11 12/12/12 10/10/10
f 13/13/13 15/15/15 16/16/16 14/14/14
f 18/18/18 17/17/17 20/20/20
f 20/20/20 19/19/19 18/18/18
f 22/22/22 24/24/24 21/21/21
f 24/24/24 22/22/22 23/23/23
